<svg id="calendar" xmlns="http://www.w3.org/2000/svg" width="51.27" height="49.977" viewBox="0 0 51.27 49.977">
  <g id="Group_7" data-name="Group 7" transform="translate(0.036)">
    <g id="Group_6" data-name="Group 6">
      <path id="Path_4" data-name="Path 4" d="M51.191,3.9H42.165L42.793,0h-4l.928,3.9H11.508L12.074,0H8.4l.858,3.9H0c-.048.016,0,2.627,0,5.857V44.12c0,3.229-.081,5.709,0,5.8l45.192.054c1.492,0,3.851-.007,6,0,.052.041,0-4.084,0-5.857V9.761C51.191,6.532,51.286,3.962,51.191,3.9ZM49.248,47.882c.039.124-2.953,0-4.056,0H6c-1.1,0-3.993.087-4.032,0V18.351H49.248Zm0-32.273H1.967V9.761c0-1.076-.062-3.374,0-3.393h7.29v5.345h2.251V6.368H39.721v5.345h2.444V6.368h7.083c0,.03,0,2.316,0,3.393Z" transform="translate(0)" fill="#0c343d"/>
    </g>
  </g>
  <g id="Group_9" data-name="Group 9" transform="translate(7.466 22.844)">
    <g id="Group_8" data-name="Group 8" transform="translate(0 0)">
      <rect id="Rectangle_40" data-name="Rectangle 40" width="3.724" height="3.869" transform="translate(0 0)" fill="#0c343d"/>
    </g>
  </g>
  <g id="Group_11" data-name="Group 11" transform="translate(15.242 22.844)">
    <g id="Group_10" data-name="Group 10" transform="translate(0 0)">
      <rect id="Rectangle_41" data-name="Rectangle 41" width="3.271" height="3.869" transform="translate(0 0)" fill="#0c343d"/>
    </g>
  </g>
  <g id="Group_13" data-name="Group 13" transform="translate(23.706 22.844)">
    <g id="Group_12" data-name="Group 12" transform="translate(0 0)">
      <rect id="Rectangle_42" data-name="Rectangle 42" width="3.599" height="3.869" transform="translate(0 0)" fill="#0c343d"/>
    </g>
  </g>
  <g id="Group_15" data-name="Group 15" transform="translate(32.193 22.844)">
    <g id="Group_14" data-name="Group 14" transform="translate(0 0)">
      <rect id="Rectangle_43" data-name="Rectangle 43" width="3.402" height="3.869" transform="translate(0 0)" fill="#0c343d"/>
    </g>
  </g>
  <g id="Group_17" data-name="Group 17" transform="translate(39.921 22.844)">
    <g id="Group_16" data-name="Group 16" transform="translate(0 0)">
      <rect id="Rectangle_44" data-name="Rectangle 44" width="3.334" height="3.869" transform="translate(0 0)" fill="#0c343d"/>
    </g>
  </g>
  <g id="Group_19" data-name="Group 19" transform="translate(7.466 30.77)">
    <g id="Group_18" data-name="Group 18" transform="translate(0 0)">
      <rect id="Rectangle_45" data-name="Rectangle 45" width="3.724" height="3.899" fill="#0c343d"/>
    </g>
  </g>
  <g id="Group_21" data-name="Group 21" transform="translate(15.242 30.77)">
    <g id="Group_20" data-name="Group 20" transform="translate(0 0)">
      <rect id="Rectangle_46" data-name="Rectangle 46" width="3.271" height="3.899" fill="#0c343d"/>
    </g>
  </g>
  <g id="Group_23" data-name="Group 23" transform="translate(23.706 30.77)">
    <g id="Group_22" data-name="Group 22" transform="translate(0 0)">
      <rect id="Rectangle_47" data-name="Rectangle 47" width="3.599" height="3.899" fill="#0c343d"/>
    </g>
  </g>
  <g id="Group_25" data-name="Group 25" transform="translate(32.193 30.77)">
    <g id="Group_24" data-name="Group 24" transform="translate(0 0)">
      <rect id="Rectangle_48" data-name="Rectangle 48" width="3.402" height="3.899" fill="#0c343d"/>
    </g>
  </g>
  <g id="Group_27" data-name="Group 27" transform="translate(7.466 38.753)">
    <g id="Group_26" data-name="Group 26" transform="translate(0 0)">
      <rect id="Rectangle_49" data-name="Rectangle 49" width="3.724" height="3.471" transform="translate(0 0)" fill="#0c343d"/>
    </g>
  </g>
  <g id="Group_29" data-name="Group 29" transform="translate(15.242 38.753)">
    <g id="Group_28" data-name="Group 28" transform="translate(0 0)">
      <rect id="Rectangle_50" data-name="Rectangle 50" width="3.271" height="3.471" transform="translate(0 0)" fill="#0c343d"/>
    </g>
  </g>
  <g id="Group_31" data-name="Group 31" transform="translate(23.706 38.753)">
    <g id="Group_30" data-name="Group 30" transform="translate(0 0)">
      <rect id="Rectangle_51" data-name="Rectangle 51" width="3.599" height="3.471" transform="translate(0 0)" fill="#0c343d"/>
    </g>
  </g>
  <g id="Group_33" data-name="Group 33" transform="translate(32.193 38.753)">
    <g id="Group_32" data-name="Group 32" transform="translate(0 0)">
      <rect id="Rectangle_52" data-name="Rectangle 52" width="3.402" height="3.471" transform="translate(0 0)" fill="#0c343d"/>
    </g>
  </g>
  <g id="Group_35" data-name="Group 35" transform="translate(39.921 30.77)">
    <g id="Group_34" data-name="Group 34" transform="translate(0 0)">
      <rect id="Rectangle_53" data-name="Rectangle 53" width="3.334" height="3.899" fill="#0c343d"/>
    </g>
  </g>
</svg>
